# xmcd
#
# Track frame offsets:
#	195
#	19112
#	33920
#	46417
#	62175
#	81375
#	99385
#	117672
#	130230
#	145067
#	162110
#	182750
#	193630
#
# Disc length: 2831 seconds
#
# Revision: 1
# Processed by: cddbd v1.5.2PL0 Copyright (c) Steve Scherf et al.
# Submitted via: audiograbber 1.83.01
#
DISCID=b20b0d0d
DTITLE=Fat Boys - Mack Daddy
DYEAR=1991
DGENRE=Rap
TTITLE0=Gettin' Hefty
TTITLE1=Mack Daddy
TTITLE2=Fly Car
TTITLE3=Da Bump
TTITLE4=Whip It On Me
TTITLE5=Let's Make Love 2Nite
TTITLE6=Tonite
TTITLE7=You're Da Man
TTITLE8=Negazaplaya
TTITLE9=Crazy
TTITLE10=Love You Down
TTITLE11=Da---Source
TTITLE12=Sweet Lovin' Baby
EXTD=
EXTT0=
EXTT1=
EXTT2=
EXTT3=
EXTT4=
EXTT5=
EXTT6=
EXTT7=
EXTT8=
EXTT9=
EXTT10=
EXTT11=
EXTT12=
PLAYORDER=
